<?xml version="1.0" encoding="UTF-8" standalone="no"?>
<!-- Created with Inkscape (http://www.inkscape.org/) -->

<svg
   width="1080mm"
   height="350mm"
   viewBox="0 0 1080 350"
   version="1.1"
   id="svg1"
   inkscape:version="1.3.2 (091e20e, 2023-11-25, custom)"
   sodipodi:docname="DB_Holiday_Market-Poster-Header.svg"
   inkscape:export-filename="DB_Holiday_Market-Poster-Story.jpg"
   inkscape:export-xdpi="96"
   inkscape:export-ydpi="96"
   xmlns:inkscape="http://www.inkscape.org/namespaces/inkscape"
   xmlns:sodipodi="http://sodipodi.sourceforge.net/DTD/sodipodi-0.dtd"
   xmlns:xlink="http://www.w3.org/1999/xlink"
   xmlns="http://www.w3.org/2000/svg"
   xmlns:svg="http://www.w3.org/2000/svg">
  <sodipodi:namedview
     id="namedview1"
     pagecolor="#ffffff"
     bordercolor="#000000"
     borderopacity="0.25"
     inkscape:showpageshadow="2"
     inkscape:pageopacity="0.0"
     inkscape:pagecheckerboard="0"
     inkscape:deskcolor="#d1d1d1"
     inkscape:document-units="mm"
     inkscape:zoom="0.16000001"
     inkscape:cx="2649.9998"
     inkscape:cy="1846.8749"
     inkscape:window-width="1920"
     inkscape:window-height="986"
     inkscape:window-x="-11"
     inkscape:window-y="-11"
     inkscape:window-maximized="1"
     inkscape:current-layer="layer1"
     showguides="true">
    <sodipodi:guide
       position="99.999999,-543.60099"
       orientation="-1,0"
       id="guide24"
       inkscape:locked="false"
       inkscape:label=""
       inkscape:color="rgb(0,134,229)" />
    <sodipodi:guide
       position="979.99999,-612.95206"
       orientation="-1,0"
       id="guide25"
       inkscape:locked="false"
       inkscape:label=""
       inkscape:color="rgb(0,134,229)" />
  </sodipodi:namedview>
  <defs
     id="defs1">
    <clipPath
       clipPathUnits="userSpaceOnUse"
       id="clipPath25">
      <rect
         style="fill:#ff0000;stroke:none;stroke-width:3;stroke-linecap:square;stroke-linejoin:miter;paint-order:stroke markers fill;stop-color:#000000"
         id="rect25-8"
         width="78"
         height="45.033199"
         x="763.61322"
         y="452.82422" />
    </clipPath>
    <pattern
       inkscape:collect="always"
       xlink:href="#pattern6"
       preserveAspectRatio="xMidYMid"
       id="pattern7"
       patternTransform="matrix(1.4142136,1.4142136,-1.4142136,1.4142136,0,60.324954)"
       x="0"
       y="0" />
    <pattern
       inkscape:collect="always"
       patternUnits="userSpaceOnUse"
       width="1.5"
       height="1"
       patternTransform="translate(0,0) scale(2,2)"
       preserveAspectRatio="xMidYMid"
       id="pattern6"
       style="fill:#ffffed"
       inkscape:stockid="Stripes 12 (2:1)"
       inkscape:isstock="true"
       inkscape:label="Stripes 12 (2:1)">
      <rect
         style="stroke:none"
         x="0"
         y="-0.5"
         width="1"
         height="2"
         id="rect5" />
    </pattern>
    <pattern
       inkscape:collect="always"
       xlink:href="#pattern4"
       preserveAspectRatio="xMidYMid"
       id="pattern5"
       patternTransform="matrix(1.4142136,1.4142136,-1.4142136,1.4142136,-0.8294977,1069.4377)"
       x="0"
       y="0" />
    <pattern
       inkscape:collect="always"
       patternUnits="userSpaceOnUse"
       width="2"
       height="10"
       patternTransform="translate(0,0) scale(2,2)"
       preserveAspectRatio="xMidYMid"
       id="pattern4"
       style="fill:#ffffed"
       inkscape:stockid="Stripes 01 (1:1)"
       inkscape:isstock="true"
       inkscape:label="Stripes 01 (1:1)">
      <rect
         style="stroke:none"
         x="0"
         y="-0.5"
         width="1"
         height="11"
         id="rect3" />
    </pattern>
    <pattern
       inkscape:collect="always"
       xlink:href="#Strips2_1"
       preserveAspectRatio="xMidYMid"
       id="pattern58"
       patternTransform="matrix(1.2005198,1.2005198,-1.2005198,1.2005198,0,65.616621)"
       x="0"
       y="0" />
    <pattern
       inkscape:collect="always"
       patternUnits="userSpaceOnUse"
       width="1.5"
       height="1"
       patternTransform="translate(0,0) scale(2,2)"
       preserveAspectRatio="xMidYMid"
       id="Strips2_1"
       style="fill:#ffffed"
       inkscape:stockid="Stripes 12 (2:1)"
       inkscape:isstock="true"
       inkscape:label="Stripes 12 (2:1)">
      <rect
         style="stroke:none"
         x="0"
         y="-0.5"
         width="1"
         height="2"
         id="rect197" />
    </pattern>
    <pattern
       inkscape:collect="always"
       xlink:href="#pattern6-7"
       preserveAspectRatio="xMidYMid"
       id="pattern27"
       patternTransform="translate(190,350)" />
    <pattern
       patternUnits="userSpaceOnUse"
       width="29"
       height="20"
       patternTransform="translate(190,350)"
       preserveAspectRatio="xMidYMid"
       style="fill:#000000"
       id="pattern6-7"
       inkscape:label=""
       inkscape:collect="always"
       inkscape:isstock="true">
      <path
         style="fill:none;stroke:#000000;stroke-width:10;stroke-linecap:butt;stroke-dasharray:none;paint-order:stroke markers fill;stop-color:#000000"
         d="M 0,5 C 19,5 10,15 29,15"
         id="path4-2"
         sodipodi:nodetypes="cc" />
    </pattern>
    <pattern
       inkscape:collect="always"
       xlink:href="#pattern6-9"
       preserveAspectRatio="xMidYMid"
       id="pattern7-6"
       patternTransform="matrix(1.4142136,1.4142136,-1.4142136,1.4142136,-6.2207031e-6,-54.385369)"
       x="0"
       y="0" />
    <pattern
       inkscape:collect="always"
       patternUnits="userSpaceOnUse"
       width="1.5"
       height="1"
       patternTransform="translate(0,0) scale(2,2)"
       preserveAspectRatio="xMidYMid"
       id="pattern6-9"
       style="fill:#ffffed"
       inkscape:stockid="Stripes 12 (2:1)"
       inkscape:isstock="true"
       inkscape:label="Stripes 12 (2:1)">
      <rect
         style="stroke:none"
         x="0"
         y="-0.5"
         width="1"
         height="2"
         id="rect5-4" />
    </pattern>
    <pattern
       inkscape:collect="always"
       xlink:href="#pattern6-9"
       preserveAspectRatio="xMidYMid"
       id="pattern1"
       patternTransform="matrix(1.4142136,1.4142136,-1.4142136,1.4142136,0,195.79173)"
       x="0"
       y="0" />
  </defs>
  <g
     inkscape:label="Layer 1"
     inkscape:groupmode="layer"
     id="layer1">
    <rect
       style="display:inline;fill:#2b3056;fill-opacity:1;stroke-width:0.561521"
       id="rect4053"
       width="1080"
       height="350"
       x="0"
       y="1.1368684e-13" />
    <path
       style="font-size:115.711px;line-height:1;font-family:'Marvin Visions';-inkscape-font-specification:'Marvin Visions';text-align:center;text-anchor:middle;fill:url(#pattern7-6);stroke-width:2"
       d="m 295.32036,113.46844 h 13.88532 c 10.64541,0 17.00952,-0.92569 22.1008,-2.66136 14.57959,-4.97557 26.49782,-18.860889 26.49782,-37.143226 0,-21.290824 -16.19954,-36.333254 -32.51479,-39.110318 -3.23991,-0.578555 -8.56262,-0.925688 -16.08383,-0.925688 H 295.32036 Z M 314.99123,94.376122 V 52.720163 c 15.04243,0 23.1422,9.835435 23.1422,20.82798 0,10.992545 -8.09977,20.827979 -23.1422,20.827979 z M 410.56861,52.720163 V 33.627848 h -50.33429 v 79.840592 h 50.33429 V 94.376122 H 379.90519 V 82.805023 h 20.82798 v -18.51376 h -20.82798 v -11.5711 z m 40.03611,60.748277 h 1.15711 V 94.376122 h -1.15711 c -6.59553,0 -11.22397,-1.272821 -14.92672,-3.818463 -5.09128,-3.471329 -8.79403,-10.066856 -8.79403,-17.009516 0,-6.94266 3.70275,-13.538187 8.79403,-17.009517 3.70275,-2.545642 8.33119,-3.818463 14.92672,-3.818463 h 1.15711 V 33.627848 h -1.15711 c -6.3641,0 -10.29828,0.462844 -13.88532,1.388532 -16.8938,4.281307 -29.5063,19.902292 -29.5063,38.531763 0,18.398048 12.49678,34.134747 29.39059,38.531767 3.70275,0.92568 7.86835,1.38853 14.00103,1.38853 z m 41.19315,1.73566 c 23.37362,0 41.88738,-18.513758 41.88738,-41.771668 0,-23.1422 -18.51376,-41.540249 -41.88738,-41.540249 -23.25791,0 -41.65596,18.398049 -41.65596,41.540249 0,23.25791 18.39805,41.771668 41.65596,41.771668 z m 0.11571,-19.208024 c -12.26537,0 -22.1008,-10.066856 -22.1008,-22.332222 0,-12.149655 9.83543,-22.563645 22.1008,-22.563645 12.03394,0 22.1008,10.41399 22.1008,22.563645 0,12.265366 -10.06686,22.332222 -22.1008,22.332222 z m 51.72266,17.472364 h 19.67087 V 74.126698 l 21.40653,-40.49885 h -20.82798 l -10.41399,19.67087 -10.41399,-19.67087 H 522.2297 l 21.40654,40.49885 z m 66.53382,0 h 30.77913 c 16.19954,0 25.91926,-10.76113 25.91926,-23.142203 0,-7.405503 -3.47133,-14.348163 -8.56261,-17.935204 4.74415,-3.702752 6.47981,-9.488302 6.47981,-14.695297 0,-10.529701 -7.05837,-22.100801 -21.40653,-23.720755 -3.23991,-0.347133 -6.94266,-0.347133 -11.10826,-0.347133 h -22.1008 z M 629.84093,64.291263 V 52.141608 h 9.14117 c 2.89277,0 6.13268,2.31422 6.13268,6.132683 0,3.818463 -3.23991,6.016972 -6.13268,6.016972 z m 0,30.663414 V 82.805023 h 11.10826 c 3.00848,0 6.24839,2.082798 6.24839,6.132683 0,4.049884 -3.23991,6.016971 -6.24839,6.016971 z m 38.99463,-6.248393 v 24.762156 h 19.67087 v -11.5711 h 17.35665 v 11.5711 h 19.67087 V 33.627848 c -32.97763,0 -56.69839,17.009517 -56.69839,55.078436 z m 19.90229,-5.901261 c 1.15711,-12.843921 6.47982,-21.98509 17.12523,-26.150686 v 26.150686 z m 83.89049,0.347133 c 6.82695,-4.512729 10.76113,-11.455389 10.76113,-20.596558 0,-15.620985 -11.45539,-26.729241 -27.19209,-28.464906 -2.42993,-0.231422 -4.97557,-0.462844 -14.46387,-0.462844 H 729.0053 v 79.840592 h 19.67087 V 92.061902 c 9.25688,0 15.62098,7.289793 15.62098,16.199538 v 5.207 h 19.67087 v -5.207 c 0,-11.339676 -4.04988,-19.786578 -11.33968,-25.109284 z M 748.67617,52.141608 c 8.09977,0 15.04243,2.892775 15.04243,10.992545 0,8.09977 -6.94266,10.41399 -15.04243,10.41399 z"
       id="text11060-02"
       aria-label="decoy bar" />
    <path
       style="font-size:110.791px;line-height:1;font-family:'Marvin Visions';-inkscape-font-specification:'Marvin Visions';text-align:center;text-anchor:middle;fill:url(#pattern7);stroke-width:2"
       d="m 194.40705,151.73307 v 29.35962 h -22.1582 v -29.35962 h -18.83447 v 76.44579 h 18.83447 v -29.35961 h 22.1582 v 29.35961 h 18.83447 v -76.44579 z m 61.04581,78.10766 c 22.37978,0 40.10634,-17.72656 40.10634,-39.99555 0,-22.1582 -17.72656,-39.77397 -40.10634,-39.77397 -22.26899,0 -39.88476,17.61577 -39.88476,39.77397 0,22.26899 17.61577,39.99555 39.88476,39.99555 z m 0.11079,-18.39131 c -11.74385,0 -21.16108,-9.63881 -21.16108,-21.38266 0,-11.63306 9.41723,-21.60425 21.16108,-21.60425 11.52226,0 21.16108,9.97119 21.16108,21.60425 0,11.74385 -9.63882,21.38266 -21.16108,21.38266 z m 61.15654,-1.55107 v -58.16528 h -18.83447 v 76.44579 h 37.66894 v -18.28051 z m 21.8259,18.28051 h 18.83447 v -76.44579 h -18.83447 z m 22.15828,0 h 13.29492 c 10.19277,0 16.28628,-0.88632 21.16108,-2.54819 13.95967,-4.76401 25.37114,-18.05893 25.37114,-35.56391 0,-20.38554 -15.51074,-34.78837 -31.13227,-37.44736 -3.10215,-0.55395 -8.19853,-0.88633 -15.39995,-0.88633 h -13.29492 z m 18.83447,-18.28051 v -39.88476 c 14.40283,0 22.1582,9.41723 22.1582,19.94238 0,10.52514 -7.75537,19.94238 -22.1582,19.94238 z m 42.98701,-5.42876 v 23.70927 h 18.83447 v -11.0791 h 16.61865 v 11.0791 h 18.83447 v -76.44579 c -31.57543,0 -54.28759,16.28628 -54.28759,52.73652 z m 19.05606,-5.65034 c 1.10791,-12.2978 6.20429,-21.05029 16.39706,-25.03877 v 25.03877 z m 57.9437,29.35961 h 18.83447 v -37.66894 l 20.49634,-38.77685 h -19.94238 l -9.97119,18.83447 -9.97119,-18.83447 h -19.94238 l 20.49633,38.77685 z m 63.70484,0 h 18.83447 v -57.61132 c 7.20141,0.33238 15.51074,5.42876 15.51074,16.0647 v 41.54662 h 17.2834 v -41.54662 c 0,-10.63594 8.30932,-15.73232 15.51074,-16.0647 v 57.61132 h 18.83447 V 151.73307 H 630.3698 c -10.30357,0 -20.27476,5.53955 -24.15244,11.0791 -3.87769,-5.53955 -13.84888,-11.0791 -24.15244,-11.0791 h -18.83447 z m 88.96514,-23.70927 v 23.70927 h 18.83447 v -11.0791 h 16.61865 v 11.0791 h 18.83447 v -76.44579 c -31.57543,0 -54.28759,16.28628 -54.28759,52.73652 z m 19.05605,-5.65034 c 1.10791,-12.2978 6.2043,-21.05029 16.39707,-25.03877 v 25.03877 z m 80.32346,0.33237 c 6.53667,-4.32085 10.30357,-10.96831 10.30357,-19.7208 0,-14.95678 -10.96831,-25.59272 -26.03589,-27.25458 -2.32661,-0.22158 -4.76401,-0.44317 -13.84887,-0.44317 H 709.8069 v 76.44579 h 18.83447 v -20.49633 c 8.86328,0 14.95678,6.97983 14.95678,15.51074 v 4.98559 h 18.83447 v -4.98559 c 0,-10.85752 -3.87768,-18.94526 -10.85752,-24.04165 z m -22.93373,-29.69199 c 7.75537,0 14.40283,2.76978 14.40283,10.52515 0,7.75537 -6.64746,9.97119 -14.40283,9.97119 z m 36.56103,58.71923 h 18.83447 v -27.69775 c 11.0791,0 16.0647,7.20142 16.0647,18.28052 v 9.41723 h 18.83447 v -9.41723 c 0,-13.62729 -4.87481,-26.36826 -17.2834,-31.35385 l 18.39131,-35.67471 h -19.94238 l -16.0647,31.02148 V 151.73307 H 765.2024 Z m 105.2514,-58.16527 v -18.28052 h -48.19408 v 76.44579 h 48.19408 v -18.28051 h -29.35961 v -11.0791 h 19.94238 v -17.72656 h -19.94238 v -11.0791 z m 56.50342,-18.28052 h -53.17968 v 18.28052 h 17.1726 v 58.16527 h 18.83447 v -58.16527 h 17.17261 z"
       id="text11060"
       aria-label="HOLIDAY MARKET " />
    <g
       id="text18"
       style="font-weight:500;font-size:57.4941px;line-height:1;font-family:Roboto;-inkscape-font-specification:'Roboto Medium';text-align:center;text-anchor:middle;fill:url(#pattern58);fill-rule:evenodd;stroke:#ffffff;stroke-width:3.39532"
       aria-label="DECEMBER 13th to 15th">
      <path
         style="font-weight:bold;font-family:'Futura Std';-inkscape-font-specification:'Futura Std Bold';stroke:none"
         d="m 225.09407,313.50577 h 15.98336 c 12.01626,0 22.02024,-9.48653 22.02024,-21.67528 0,-12.18875 -9.94648,-21.67527 -22.02024,-21.67527 h -15.98336 z m 11.26884,-33.80653 h 2.64473 c 7.24426,0 12.36123,4.36955 12.36123,12.13125 0,8.45164 -5.74941,12.13126 -12.47622,12.13126 h -2.52974 z m 56.63173,0 v -9.54402 h -24.66497 v 43.35055 h 24.66497 v -9.54402 h -13.39612 v -7.47424 h 12.70619 v -9.54402 h -12.70619 v -7.24425 z m 37.94606,-8.50913 c -3.33466,-1.37986 -6.66931,-2.18477 -10.29144,-2.18477 -6.09438,0 -12.24625,2.64472 -16.50081,7.01428 -4.13957,4.25456 -6.38184,9.94647 -6.38184,15.86837 0,6.43934 2.18477,12.07376 6.95678,16.38581 4.48454,4.08209 10.23395,6.38185 16.27083,6.38185 3.50714,0 6.20937,-0.86241 9.94648,-2.01229 v -13.51112 c -2.35726,2.81721 -6.03688,4.59953 -9.7165,4.59953 -7.01428,0 -11.7288,-4.94449 -11.7288,-11.78629 0,-6.72681 4.65702,-12.01627 11.55632,-12.01627 3.8521,0 7.58922,1.66733 9.88898,4.77201 z m 31.62175,8.50913 v -9.54402 h -24.66497 v 43.35055 h 24.66497 v -9.54402 h -13.39613 v -7.47424 h 12.7062 v -9.54402 h -12.7062 v -7.24425 z m 4.36951,33.80653 h 11.21135 l 3.62213,-24.95244 h 0.11498 l 9.94648,24.95244 h 4.48454 l 10.40643,-24.95244 h 0.11499 l 3.16218,24.95244 h 11.26884 l -6.55433,-43.35055 H 403.4982 l -9.31404,23.17012 -8.7966,-23.17012 H 374.2912 Z m 70.37275,-17.93816 h 1.14989 c 3.67962,0 9.25655,-0.51745 9.25655,4.71452 0,4.77201 -5.63443,4.59952 -8.96908,4.59952 h -1.43736 z m 6.09438,17.93816 c 7.93418,0 15.69589,-2.9897 15.69589,-12.07376 0,-6.03688 -2.64473,-10.23395 -8.85409,-11.03887 v -0.11499 c 3.50714,-1.78232 4.77201,-4.94449 4.77201,-8.85409 0,-8.27915 -5.17447,-11.26884 -12.87868,-11.26884 h -16.09835 v 43.35055 z m -6.09438,-34.72644 h 0.80492 c 3.04719,0 6.55433,0.22998 6.55433,4.19707 0,3.67962 -3.10468,4.19707 -6.09438,4.19707 h -1.26487 z m 52.31965,0.91991 v -9.54402 h -24.66497 v 43.35055 h 24.66497 v -9.54402 h -13.39612 v -7.47424 h 12.70619 v -9.54402 h -12.70619 v -7.24425 z m 29.37944,16.04085 c 6.15186,-1.09239 9.48652,-6.26686 9.48652,-12.24624 0,-9.25655 -6.49683,-13.33863 -15.06345,-13.33863 H 496.5811 v 43.35055 h 11.26884 v -16.67329 h 0.11499 l 10.63641,16.67329 h 14.02856 z m -11.15386,-16.96076 h 1.09239 c 3.67962,0 7.8192,0.68993 7.8192,5.40445 0,4.71451 -4.13958,5.40444 -7.8192,5.40444 h -1.09239 z m 59.33395,0.91991 v 33.80653 h 11.26884 v -43.35055 h -17.47821 v 9.54402 z m 38.63609,2.9322 c -0.0575,-2.81721 1.72482,-5.00199 4.59953,-5.00199 2.52974,0 4.42704,1.72482 4.42704,4.36955 0,2.98969 -2.06979,4.77201 -4.94449,4.77201 h -1.14988 v 7.53173 c 0.63243,-0.17248 1.26487,-0.34497 1.9548,-0.34497 3.16217,0 5.97938,2.52974 5.97938,5.80691 0,3.50714 -2.58723,5.8069 -6.03688,5.8069 -3.56463,0 -6.03688,-2.70222 -6.03688,-6.15187 h -11.49882 c -0.11499,3.79461 2.35726,8.27915 4.94449,10.92388 3.50714,3.56464 7.99168,4.887 12.93618,4.887 8.62411,0 16.84577,-4.887 16.84577,-14.37352 0,-4.42705 -2.47225,-9.71651 -7.07178,-10.92388 3.16218,-1.78232 4.54204,-5.46194 4.54204,-8.91159 0,-8.10667 -6.09438,-12.59121 -13.85608,-12.59121 -4.42705,0 -8.27915,1.26487 -11.03887,3.73712 -2.75971,2.47225 -4.59953,5.92189 -5.05948,10.46393 z"
         id="path1" />
      <path
         style="font-weight:bold;font-size:37.3712px;font-family:'Futura Std';-inkscape-font-specification:'Futura Std Bold';baseline-shift:super;stroke:none"
         d="m 640.2791,276.94238 h 3.84924 v -5.60568 h -3.84924 v -5.75516 h -6.80156 v 5.75516 h -2.2049 v 5.60568 h 2.2049 v 13.56575 h 6.80156 z m 6.01681,-17.45235 v 31.0181 h 6.80156 v -9.82863 c 0,-2.24227 0.85953,-4.55928 3.55026,-4.55928 2.7281,0 3.06444,2.31701 3.06444,4.55928 v 9.82863 h 6.80156 v -11.73456 c 0,-4.85825 -2.35439,-8.07218 -7.21264,-8.07218 -2.65336,0 -4.55929,0.97165 -6.12888,3.06444 h -0.0747 v -14.2758 z"
         id="path2" />
      <path
         style="font-weight:bold;font-family:'Futura Std';-inkscape-font-specification:'Futura Std Bold';stroke:none"
         d="m 703.36743,292.63541 h 5.92189 v -8.62411 h -5.92189 v -8.8541 H 692.9035 v 8.8541 h -3.39215 v 8.62411 h 3.39215 v 20.87036 h 10.46393 z m 24.83748,-9.60151 c -9.48653,0 -17.76568,5.69191 -17.76568,15.75338 0,10.06147 8.33665,15.69589 17.76568,15.69589 9.48653,0 17.76568,-5.69192 17.76568,-15.69589 0,-10.06147 -8.27915,-15.75338 -17.76568,-15.75338 z m 0,9.08406 c 4.25456,0 6.72681,3.04719 6.72681,6.66932 0,3.73711 -2.47225,6.61182 -6.72681,6.61182 -4.25456,0 -6.72681,-2.87471 -6.72681,-6.61182 0,-3.62213 2.47225,-6.66932 6.72681,-6.66932 z m 54.21701,-12.41872 v 33.80653 h 11.26885 v -43.35055 h -17.47821 v 9.54402 z m 56.34425,0 v -9.54402 h -22.53769 l -3.79461,23.51508 c 2.58723,-1.20737 5.40444,-1.78231 8.27915,-1.78231 4.48454,0 9.48653,2.18477 9.48653,7.41674 0,3.79461 -3.33466,6.38184 -6.8993,6.38184 -4.48454,0 -8.7391,-2.01229 -12.07376,-5.00199 l -1.66733,10.63641 c 4.19707,2.70222 9.19906,3.9096 14.14355,3.9096 4.31206,0 9.19906,-0.86241 12.6487,-3.62213 3.56464,-2.9322 5.57693,-7.18676 5.57693,-11.72879 0,-8.96908 -6.49683,-16.21334 -15.35092,-15.52341 l -3.56464,0.28747 0.74743,-4.94449 z"
         id="path3" />
      <path
         style="font-weight:bold;font-size:37.3712px;font-family:'Futura Std';-inkscape-font-specification:'Futura Std Bold';baseline-shift:super;stroke:none"
         d="m 855.51717,276.94238 h 3.84923 v -5.60568 h -3.84923 v -5.75516 h -6.80156 v 5.75516 h -2.2049 v 5.60568 h 2.2049 v 13.56575 h 6.80156 z m 6.01674,-17.45235 v 31.0181 h 6.80156 v -9.82863 c 0,-2.24227 0.85954,-4.55928 3.55027,-4.55928 2.72809,0 3.06444,2.31701 3.06444,4.55928 v 9.82863 h 6.80155 v -11.73456 c 0,-4.85825 -2.35438,-8.07218 -7.21264,-8.07218 -2.65335,0 -4.55928,0.97165 -6.12887,3.06444 h -0.0747 v -14.2758 z"
         id="path4" />
    </g>
  </g>
</svg>
