<?xml version="1.0" encoding="utf-8"?>
<!-- Generator: Adobe Illustrator 23.0.2, SVG Export Plug-In . SVG Version: 6.00 Build 0)  -->
<svg version="1.1" id="Layer_1" xmlns="http://www.w3.org/2000/svg" xmlns:xlink="http://www.w3.org/1999/xlink" x="0px" y="0px"
	 viewBox="0 0 204.9 205.8" style="enable-background:new 0 0 204.9 205.8;" xml:space="preserve">
<style type="text/css">
	.st0{display:none;}
	.st1{display:inline;fill:#FFFFFF;}
	.st2{fill:#F8F4E8;}
</style>
<g id="Background" class="st0">
	<rect x="-75.5" y="-92.2" class="st1" width="360" height="360"/>
</g>
<g id="Logo">
	<path class="st2" d="M190.9,144.3c2.5-1.6,3.9-4.2,3.9-7.5c0-5.7-4.2-9.7-9.9-10.3c-0.9-0.1-1.8-0.2-5.3-0.2H175v29h7.1v-7.8
		c3.4,0,5.7,2.6,5.7,5.9v1.9h7.1v-1.9C195,149.3,193.5,146.2,190.9,144.3z M182.2,140.8V133c3,0,5.5,1.1,5.5,4
		C187.6,139.9,185.1,140.8,182.2,140.8z M152.3,145.6c-0.3-2.2-1.5-4.1-3-5.2c1.7-1.3,2.4-3.4,2.4-5.3c0-3.8-2.6-8-7.8-8.6
		c-1.2-0.1-2.5-0.1-4-0.1h-8v29H143c5.3,0,8.6-3.1,9.3-7v7h7.1v-4.2h6.3v4.2h7.1v-29C161.2,126.3,152.6,132.2,152.3,145.6z M139,133
		h3.3c1.1,0,2.2,0.8,2.2,2.2s-1.2,2.2-2.2,2.2H139V133z M143,148.5h-4v-4.4h4c1.1,0,2.3,0.8,2.3,2.2
		C145.3,147.8,144.1,148.5,143,148.5z M165.8,134.6v9.5h-6.2C160,139.5,161.9,136.2,165.8,134.6z M112.1,133.4l-3.8-7.2h-7.6
		l7.8,14.7v14.3h7.1v-14.3l7.8-14.7h-7.6L112.1,133.4z M88,125.6c-6.1,0-11.2,3.5-13.6,8.5c-0.9,2-1.5,4.2-1.5,6.6
		c0,2.6,0.7,5.1,1.8,7.3c2.5,4.7,7.5,7.9,13.3,7.9c8.5,0,15.2-6.7,15.2-15.2C103.2,132.3,96.5,125.6,88,125.6z M88.1,148.9
		c-4.4,0-8-3.7-8-8.1c0-4.4,3.6-8.2,8-8.2s8,3.8,8,8.2C96.1,145.3,92.4,148.9,88.1,148.9z M67.2,126.8c-3.8,1-7.1,3.6-8.9,7
		c-1.1,2.1-1.8,4.5-1.8,7s0.6,4.9,1.8,7c1.9,3.4,5.1,6.1,8.9,7.1c1.3,0.3,2.9,0.5,5.1,0.5h0.4v-6.9h-0.4c-2.4,0-4.1-0.5-5.4-1.4
		c-1.9-1.3-3.2-3.7-3.2-6.2s1.3-4.9,3.2-6.2c1.3-0.9,3-1.4,5.4-1.4h0.4v-6.9h-0.4C69.9,126.3,68.5,126.4,67.2,126.8z M45.7,144.1
		h7.6v-6.7h-7.6v-4.2h11.1v-6.9H38.5v9.4c-1.9-5-6.4-8.3-10.9-9.1c-1.2-0.2-3.1-0.3-5.8-0.3h-5v29h5c3.9,0,6.2-0.3,8-1
		c3.8-1.3,7.1-4.3,8.7-8.4v9.4h18.3v-6.9H45.7V144.1z M23.9,148.3v-15.1c5.5,0,8.4,3.6,8.4,7.6S29.4,148.3,23.9,148.3z M194.9,111.5
		h-47.4c2.5-1.9,4.7-4,6.9-6.1l30.8-30.8c5.9-5.7,9.5-13.7,9.5-22.5v-3.6h-59.9c-17.4,0-34.1,7.2-46.1,19.7V44.9
		c0-13.9-11.3-25.2-25.2-25.2c-9.4,0-18.1,5.3-22.5,13.9c-5.8,11.1-14.5,15-20.7,15h-3.5v7.2h3.5h32.4c1.4,0,2.7,0.5,3.6,1.4
		l0.4,0.4c0.8,0.9,1.3,2.2,1.3,3.5c0,1-0.3,2.1-0.9,2.9l-6.8,11.6c-0.5-1.6-1.3-3.1-2.2-4.5l-4.8-8.2H16.8L12,71v0.1
		c-2.2,3.5-3.4,7.5-3.4,11.6c0,10.6,7.8,19.5,17.9,21.2v7.5l-9.7,7.3h26.6l-9.7-7.3v-7.5c3.1-0.5,6-1.7,8.6-3.5
		c2,10.4,11.1,18.3,22.1,18.3h0.9h60.3h69.3L194.9,111.5L194.9,111.5z M17.4,76.1l3.5-6h18.4l3.5,6c0.1,0.1,0.1,0.2,0.2,0.3H17.2
		C17.3,76.3,17.3,76.2,17.4,76.1z M43.8,86.8c-0.5,1.6-1.2,3-2.2,4.3l0,0c-0.2,0.3-0.5,0.6-0.7,0.9c-0.1,0.1-0.2,0.2-0.3,0.3
		c-0.1,0.2-0.3,0.3-0.5,0.5s-0.3,0.3-0.5,0.5c-0.1,0.1-0.2,0.2-0.3,0.3c-0.2,0.2-0.5,0.4-0.7,0.6l0,0c-1.2,0.9-2.5,1.6-3.9,2.1
		c-0.1,0-0.1,0-0.2,0.1c-0.3,0.1-0.6,0.2-0.9,0.3c-0.1,0-0.3,0.1-0.4,0.1c-0.3,0.1-0.5,0.1-0.7,0.2c-0.2,0-0.4,0.1-0.6,0.1
		c-0.2,0-0.4,0.1-0.6,0.1c-0.4,0-0.9,0.1-1.3,0.1c-7.6,0-13.8-5.9-14.3-13.4h28.6l0,0C44.3,84.7,44.1,85.8,43.8,86.8z M187.3,55.7
		c-1,7-5.1,13.1-10.8,16.8c-3.8,2.5-8.4,3.9-13.2,3.9h-2.1c1.2-1,2.3-2,3.3-3.1c4.3-4.8,7.2-10.8,8-17.6
		C172.4,55.7,187.3,55.7,187.3,55.7z M89.7,78.1c1.1-1.5,2.3-2.9,3.6-4.3c10.7-11.5,25.8-18.1,41.5-18.1h30.3
		c-1.2,8.2-6.5,15-13.7,18.4c-3.1,1.5-6.6,2.3-10.3,2.3h-25.4h-5.9c-2.9,0-5.7,0.3-8.4,0.9c-6.1,1.3-11.6,4.1-16.3,8
		C86.4,82.8,88,80.4,89.7,78.1z M38.2,48.6c1.7-1.5,3.3-3.1,4.7-4.9l4.9,4.9H38.2z M46.9,37.6c0.1-0.2,0.3-0.5,0.4-0.7
		c3.2-6.2,9.4-10,16.1-10c9.9,0,18,8.1,18,18v31.5H58.3l5-8.5c1.3-2,2-4.4,2-6.8c0-3.2-1.2-6.1-3.2-8.3l0,0L46.9,37.6z M71,111.5
		h-5.8h-0.9c-8.4,0-15.3-6.9-15.3-15.3c0-2.5,0.6-4.9,1.8-7.2l3.2-5.5h23.8C73.5,92.2,71.1,101.7,71,111.5z M78.4,111.5
		c1.8-15.7,15.1-27.9,31.3-27.9h53.5c1,0,2-0.1,3-0.1l-16.9,16.9c-6.6,6.7-13.1,11.2-23.7,11.2C125.6,111.5,78.4,111.5,78.4,111.5z"
		/>
	<g>
		<path class="st2" d="M31.6,179.7v-0.3h2.6v0.2c0,0.9,0.6,1.6,1.5,1.6c0.8,0,1.5-0.7,1.5-1.5c0-0.7-0.4-1.3-1-1.6
			c-0.2-0.1-0.4-0.1-1.6-0.1h-1.7l2.6-2.5h-3.2V173h6.3v2.5h-2c2,0.5,3.2,2.2,3.2,4.2c0,2.3-1.8,4.1-4.1,4.1
			C33.4,183.8,31.6,181.9,31.6,179.7z"/>
		<path class="st2" d="M43.8,175.5H40V173h6.7v2.5l-3.8,8H40L43.8,175.5z"/>
		<path class="st2" d="M46.9,180v-3.3c0-2.1,1.5-4.1,4-4.1s4,1.9,4,4.1v3.3c0,1.9-1.5,3.8-4,3.8S46.9,181.9,46.9,180z M52.3,179.4
			v-2.2c0-1.2-0.2-2.1-1.4-2.1c-1.1,0-1.4,0.8-1.4,2.1v2.1c0,1.1,0.2,1.9,1.4,1.9S52.3,180.5,52.3,179.4z"/>
		<path class="st2" d="M67.7,185.1H65c-0.1-0.5-0.4-1.4-1.5-1.4h-0.1c-3.1,0-5.5-2.4-5.5-5.5s2.4-5.5,5.5-5.5s5.5,2.4,5.5,5.5
			c0,1.9-0.9,3.6-2.4,4.6C67.3,183.4,67.7,184.3,67.7,185.1z M63.5,181.2c1.6,0,2.9-1.3,2.9-3c0-1.6-1.3-3-2.9-3s-2.9,1.4-2.9,3
			C60.6,179.9,61.9,181.2,63.5,181.2z"/>
		<path class="st2" d="M69.3,179.5v-6.6h2.6v6.6c0,1,0.3,1.6,1.2,1.6s1.2-0.6,1.2-1.6v-6.6h2.6v6.6c0,2.9-2,4.1-3.8,4.1
			S69.3,182.4,69.3,179.5z"/>
		<path class="st2" d="M80,175.5v1.5h2.8v2.4H80v1.5h4v2.5h-6.7v-10.6H84v2.5L80,175.5L80,175.5z"/>
		<path class="st2" d="M87.1,175.5v1.5h2.8v2.4h-2.8v1.5h4.1v2.5h-6.7v-10.6h6.7v2.5L87.1,175.5L87.1,175.5z"/>
		<path class="st2" d="M99.2,172.9v10.6h-2.6v-3.3c0-2.1-0.8-3.5-2.4-4.1v7.4h-2.6v-10.6c2.1,0,3.8,0.7,5,1.8v-1.8L99.2,172.9
			L99.2,172.9z"/>
		<path class="st2" d="M102.7,181h3.1c0.6,0,0.9-0.3,0.9-0.7s-0.4-0.7-0.7-0.8c-1.4-0.5-2-0.7-2.5-1.2c-0.6-0.6-0.8-1.3-0.8-2.2
			c0-1.5,0.8-2.8,2.3-3.1c0.3-0.1,0.6-0.1,1.6-0.1h1.4v2.5h-2c-0.5,0-0.7,0.3-0.7,0.7s0.2,0.7,0.7,0.8c1,0.3,1.9,0.6,2.4,1
			c0.6,0.5,0.9,1.4,0.9,2.3c0,1.9-1.4,3.3-3.2,3.3h-3.4L102.7,181L102.7,181z"/>
		<path class="st2" d="M115.9,175.5h-2.4v8h-2.6v-8h-2.4V173h7.4V175.5z"/>
		<path class="st2" d="M123.6,182.8v0.7H121v-0.7c0-1.2-0.8-2.1-2.1-2.1v2.8h-2.6v-10.6h1.7c1.3,0,1.6,0,1.9,0.1
			c2.1,0.2,3.6,1.7,3.6,3.8c0,1.2-0.5,2.1-1.4,2.7C123.1,180.2,123.6,181.3,123.6,182.8z M118.9,178.2c1.1,0,2-0.3,2-1.4
			s-0.9-1.4-2-1.4V178.2z"/>
		<path class="st2" d="M126.6,175.5v1.5h2.8v2.4h-2.8v1.5h4.1v2.5H124v-10.6h6.7v2.5L126.6,175.5L126.6,175.5z"/>
		<path class="st2" d="M133.7,175.5v1.5h2.8v2.4h-2.8v1.5h4.1v2.5h-6.7v-10.6h6.7v2.5L133.7,175.5L133.7,175.5z"/>
		<path class="st2" d="M145.6,175.5h-2.4v8h-2.6v-8h-2.4V173h7.4V175.5L145.6,175.5z"/>
		<path class="st2" d="M151.5,175.5v1.5h2.8v2.4h-2.8v1.5h4.1v2.5h-6.7v-10.6h6.7v2.5L151.5,175.5L151.5,175.5z"/>
		<path class="st2" d="M163.4,172.9v10.6h-2.6V182h-2.3v1.5h-2.6v-3.3C155.9,175.2,159.1,172.9,163.4,172.9z M160.8,179.5V176
			c-1.4,0.6-2.1,1.8-2.3,3.5H160.8z"/>
		<path class="st2" d="M163.9,181h3.1c0.6,0,0.9-0.3,0.9-0.7s-0.4-0.7-0.7-0.8c-1.4-0.5-2-0.7-2.5-1.2c-0.6-0.6-0.8-1.3-0.8-2.2
			c0-1.5,0.8-2.8,2.3-3.1c0.3-0.1,0.5-0.1,1.6-0.1h1.4v2.5h-2c-0.5,0-0.7,0.3-0.7,0.7s0.2,0.7,0.7,0.8c1,0.3,1.9,0.6,2.5,1
			c0.6,0.5,0.9,1.4,0.9,2.3c0,1.9-1.5,3.3-3.2,3.3H164L163.9,181L163.9,181z"/>
		<path class="st2" d="M177,175.5h-2.4v8H172v-8h-2.4V173h7.4V175.5L177,175.5z"/>
		<path class="st2" d="M80.3,193.8h-2.4v8h-2.6v-8h-2.4v-2.5h7.4V193.8L80.3,193.8z"/>
		<path class="st2" d="M79.8,196.6c0-3.1,2.4-5.5,5.5-5.5s5.5,2.4,5.5,5.5s-2.4,5.5-5.5,5.5C82.3,202.1,79.8,199.7,79.8,196.6z
			 M88.3,196.6c0-1.6-1.3-3-2.9-3s-2.9,1.4-2.9,3s1.3,3,2.9,3C86.9,199.6,88.3,198.2,88.3,196.6z"/>
		<path class="st2" d="M98.5,201.2v0.7h-2.6v-0.7c0-1.2-0.8-2.1-2.1-2.1v2.8h-2.6v-10.6h1.7c1.3,0,1.6,0,1.9,0.1
			c2.1,0.2,3.6,1.7,3.6,3.8c0,1.2-0.5,2.1-1.4,2.7C97.9,198.6,98.5,199.7,98.5,201.2z M93.8,196.6c1.1,0,2-0.3,2-1.4s-0.9-1.4-2-1.4
			V196.6z"/>
		<path class="st2" d="M98.6,196.6c0-3.1,2.4-5.5,5.5-5.5s5.5,2.4,5.5,5.5s-2.4,5.5-5.5,5.5S98.6,199.7,98.6,196.6z M107,196.6
			c0-1.6-1.3-3-2.9-3s-2.9,1.4-2.9,3s1.3,3,2.9,3S107,198.2,107,196.6z"/>
		<path class="st2" d="M117.5,191.3v10.6h-2.6v-3.3c0-2.1-0.8-3.5-2.4-4.1v7.4H110v-10.6c2.1,0,3.8,0.7,5,1.8v-1.8L117.5,191.3
			L117.5,191.3z"/>
		<path class="st2" d="M125.3,193.8H123v8h-2.6v-8H118v-2.5h7.4L125.3,193.8L125.3,193.8z"/>
		<path class="st2" d="M124.9,196.6c0-3.1,2.4-5.5,5.5-5.5c3.1,0,5.5,2.4,5.5,5.5s-2.4,5.5-5.5,5.5
			C127.3,202.1,124.9,199.7,124.9,196.6z M133.3,196.6c0-1.6-1.3-3-2.9-3c-1.6,0-2.9,1.4-2.9,3s1.3,3,2.9,3
			C132,199.6,133.3,198.2,133.3,196.6z"/>
	</g>
</g>
</svg>
