<?xml version="1.0" encoding="utf-8"?>
<!-- Generator: Adobe Illustrator 23.0.2, SVG Export Plug-In . SVG Version: 6.00 Build 0)  -->
<svg version="1.1" id="Layer_1" xmlns="http://www.w3.org/2000/svg" xmlns:xlink="http://www.w3.org/1999/xlink" x="0px" y="0px"
	 viewBox="0 0 204.9 189.6" style="enable-background:new 0 0 204.9 189.6;" xml:space="preserve">
<style type="text/css">
	.st0{display:none;}
	.st1{display:inline;fill:#FFFFFF;}
	.st2{fill:#F8F4E8;}
</style>
<g id="Background" class="st0">
	<rect x="-75.5" y="-108.4" class="st1" width="360" height="360"/>
</g>
<g id="Logo">
	<path class="st2" d="M190.9,128.1c2.5-1.6,3.9-4.2,3.9-7.5c0-5.7-4.2-9.7-9.9-10.3c-0.9-0.1-1.8-0.2-5.3-0.2H175v29h7.1v-7.8
		c3.4,0,5.7,2.6,5.7,5.9v1.9h7.1v-1.9C195,133.1,193.5,130,190.9,128.1z M182.2,124.6v-7.8c3,0,5.5,1.1,5.5,4
		C187.6,123.7,185.1,124.6,182.2,124.6z M152.3,129.4c-0.3-2.2-1.5-4.1-3-5.2c1.7-1.3,2.4-3.4,2.4-5.3c0-3.8-2.6-8-7.8-8.6
		c-1.2-0.1-2.5-0.1-4-0.1h-8v29H143c5.3,0,8.6-3.1,9.3-7v7h7.1v-4.2h6.3v4.2h7.1v-29C161.2,110.1,152.6,116,152.3,129.4z M139,116.8
		h3.3c1.1,0,2.2,0.8,2.2,2.2s-1.2,2.2-2.2,2.2H139V116.8z M143,132.3h-4v-4.4h4c1.1,0,2.3,0.8,2.3,2.2
		C145.3,131.6,144.1,132.3,143,132.3z M165.8,118.4v9.5h-6.2C160,123.3,161.9,120,165.8,118.4z M112.1,117.2l-3.8-7.2h-7.6l7.8,14.7
		v14.3h7.1v-14.3l7.8-14.7h-7.6L112.1,117.2z M88,109.4c-6.1,0-11.2,3.5-13.6,8.5c-0.9,2-1.5,4.2-1.5,6.6c0,2.6,0.7,5.1,1.8,7.3
		c2.5,4.7,7.5,7.9,13.3,7.9c8.5,0,15.2-6.7,15.2-15.2C103.2,116.1,96.5,109.4,88,109.4z M88.1,132.7c-4.4,0-8-3.7-8-8.1
		c0-4.4,3.6-8.2,8-8.2c4.4,0,8,3.8,8,8.2C96.1,129.1,92.4,132.7,88.1,132.7z M67.2,110.6c-3.8,1-7.1,3.6-8.9,7
		c-1.1,2.1-1.8,4.5-1.8,7c0,2.5,0.6,4.9,1.8,7c1.9,3.4,5.1,6.1,8.9,7.1c1.3,0.3,2.9,0.5,5.1,0.5h0.4v-6.9h-0.4
		c-2.4,0-4.1-0.5-5.4-1.4c-1.9-1.3-3.2-3.7-3.2-6.2c0-2.5,1.3-4.9,3.2-6.2c1.3-0.9,3-1.4,5.4-1.4h0.4v-6.9h-0.4
		C69.9,110.1,68.5,110.2,67.2,110.6z M45.7,127.9h7.6v-6.7h-7.6V117h11.1v-6.9H38.5v9.4c-1.9-5-6.4-8.3-10.9-9.1
		c-1.2-0.2-3.1-0.3-5.8-0.3h-5v29h5c3.9,0,6.2-0.3,8-1c3.8-1.3,7.1-4.3,8.7-8.4v9.4h18.3v-6.9H45.7V127.9z M23.9,132.1V117
		c5.5,0,8.4,3.6,8.4,7.6C32.3,128.6,29.4,132.1,23.9,132.1z M194.9,95.3h-47.4c2.5-1.9,4.7-4,6.9-6.1l30.8-30.8
		c5.9-5.7,9.5-13.7,9.5-22.5v-3.6h-59.9c-17.4,0-34.1,7.2-46.1,19.7V28.7c0-13.9-11.3-25.2-25.2-25.2c-9.4,0-18.1,5.3-22.5,13.9
		c-5.8,11.1-14.5,15-20.7,15h-3.5v7.2h3.5h32.4c1.4,0,2.7,0.5,3.6,1.4l0.4,0.4c0.8,0.9,1.3,2.2,1.3,3.5c0,1-0.3,2.1-0.9,2.9
		l-6.8,11.6c-0.5-1.6-1.3-3.1-2.2-4.5l-4.8-8.2H16.8L12,54.8l0,0.1c-2.2,3.5-3.4,7.5-3.4,11.6c0,10.6,7.8,19.5,17.9,21.2v7.5
		l-9.7,7.3h26.6l-9.7-7.3v-7.5c3.1-0.5,6-1.7,8.6-3.5c2,10.4,11.1,18.3,22.1,18.3h0.9h60.3h69.3L194.9,95.3L194.9,95.3z M17.4,59.9
		l3.5-6h18.4l3.5,6c0.1,0.1,0.1,0.2,0.2,0.3H17.2C17.3,60.1,17.3,60,17.4,59.9z M43.8,70.6c-0.5,1.6-1.2,3-2.2,4.3c0,0,0,0,0,0
		c-0.2,0.3-0.5,0.6-0.7,0.9c-0.1,0.1-0.2,0.2-0.3,0.3c-0.1,0.2-0.3,0.3-0.5,0.5c-0.2,0.2-0.3,0.3-0.5,0.5c-0.1,0.1-0.2,0.2-0.3,0.3
		c-0.2,0.2-0.5,0.4-0.7,0.6c0,0,0,0,0,0c-1.2,0.9-2.5,1.6-3.9,2.1c-0.1,0-0.1,0-0.2,0.1c-0.3,0.1-0.6,0.2-0.9,0.3
		c-0.1,0-0.3,0.1-0.4,0.1c-0.3,0.1-0.5,0.1-0.7,0.2c-0.2,0-0.4,0.1-0.6,0.1c-0.2,0-0.4,0.1-0.6,0.1c-0.4,0-0.9,0.1-1.3,0.1
		c-7.6,0-13.8-5.9-14.3-13.4h28.6h0C44.3,68.5,44.1,69.6,43.8,70.6z M187.3,39.5c-1,7-5.1,13.1-10.8,16.8c-3.8,2.5-8.4,3.9-13.2,3.9
		h-2.1c1.2-1,2.3-2,3.3-3.1c4.3-4.8,7.2-10.8,8-17.6C172.4,39.5,187.3,39.5,187.3,39.5z M89.7,61.9c1.1-1.5,2.3-2.9,3.6-4.3
		c10.7-11.5,25.8-18.1,41.5-18.1h30.3c-1.2,8.2-6.5,15-13.7,18.4c-3.1,1.5-6.6,2.3-10.3,2.3h-25.4h-5.9c-2.9,0-5.7,0.3-8.4,0.9
		c-6.1,1.3-11.6,4.1-16.3,8C86.4,66.6,88,64.2,89.7,61.9z M38.2,32.4c1.7-1.5,3.3-3.1,4.7-4.9l4.9,4.9H38.2z M46.9,21.4
		c0.1-0.2,0.3-0.5,0.4-0.7c3.2-6.2,9.4-10,16.1-10c9.9,0,18,8.1,18,18v31.5H58.3l5-8.5c1.3-2,2-4.4,2-6.8c0-3.2-1.2-6.1-3.2-8.3l0,0
		L46.9,21.4z M71,95.3h-5.8h-0.9c-8.4,0-15.3-6.9-15.3-15.3c0-2.5,0.6-4.9,1.8-7.2l3.2-5.5h23.8C73.5,76,71.1,85.5,71,95.3z
		 M78.4,95.3c1.8-15.7,15.1-27.9,31.3-27.9h53.5c1,0,2-0.1,3-0.1l-16.9,16.9c-6.6,6.7-13.1,11.2-23.7,11.2
		C125.6,95.3,78.4,95.3,78.4,95.3z"/>
	<g>
		<path class="st2" d="M31.6,163.5v-0.3h2.6v0.2c0,0.9,0.6,1.6,1.5,1.6c0.8,0,1.5-0.7,1.5-1.5c0-0.7-0.4-1.3-1-1.6
			c-0.2-0.1-0.4-0.1-1.6-0.1h-1.7l2.6-2.5h-3.2v-2.5h6.3v2.5h-2c2,0.5,3.2,2.2,3.2,4.2c0,2.3-1.8,4.1-4.1,4.1
			C33.4,167.6,31.6,165.7,31.6,163.5z"/>
		<path class="st2" d="M43.8,159.3H40v-2.5h6.7v2.5l-3.8,8H40L43.8,159.3z"/>
		<path class="st2" d="M46.9,163.8v-3.3c0-2.1,1.5-4.1,4-4.1s4,1.9,4,4.1v3.3c0,1.9-1.5,3.8-4,3.8S46.9,165.7,46.9,163.8z
			 M52.3,163.2V161c0-1.2-0.2-2.1-1.4-2.1c-1.1,0-1.4,0.8-1.4,2.1v2.1c0,1.1,0.2,1.9,1.4,1.9S52.3,164.3,52.3,163.2z"/>
		<path class="st2" d="M67.7,168.9l-2.7,0c-0.1-0.5-0.4-1.4-1.5-1.4h-0.1c-3.1,0-5.5-2.4-5.5-5.5c0-3.1,2.4-5.5,5.5-5.5
			c3.1,0,5.5,2.4,5.5,5.5c0,1.9-0.9,3.6-2.4,4.6C67.3,167.2,67.7,168.1,67.7,168.9z M63.5,165c1.6,0,2.9-1.3,2.9-3
			c0-1.6-1.3-3-2.9-3c-1.6,0-2.9,1.4-2.9,3C60.6,163.7,61.9,165,63.5,165z"/>
		<path class="st2" d="M69.3,163.3v-6.6h2.6v6.6c0,1,0.3,1.6,1.2,1.6s1.2-0.6,1.2-1.6v-6.6h2.6v6.6c0,2.9-2,4.1-3.8,4.1
			S69.3,166.2,69.3,163.3z"/>
		<path class="st2" d="M80,159.3v1.5h2.8v2.4H80v1.5H84v2.5h-6.7v-10.6H84v2.5L80,159.3L80,159.3z"/>
		<path class="st2" d="M87.1,159.3v1.5h2.8v2.4h-2.8v1.5h4.1v2.5h-6.7v-10.6h6.7v2.5L87.1,159.3L87.1,159.3z"/>
		<path class="st2" d="M99.2,156.7v10.6h-2.6V164c0-2.1-0.8-3.5-2.4-4.1v7.4h-2.6v-10.6c2.1,0,3.8,0.7,5,1.8v-1.8H99.2z"/>
		<path class="st2" d="M102.7,164.8h3.1c0.6,0,0.9-0.3,0.9-0.7c0-0.4-0.4-0.7-0.7-0.8c-1.4-0.5-2-0.7-2.5-1.2
			c-0.6-0.6-0.8-1.3-0.8-2.2c0-1.5,0.8-2.8,2.3-3.1c0.3-0.1,0.6-0.1,1.6-0.1h1.4v2.5h-2c-0.5,0-0.7,0.3-0.7,0.7
			c0,0.4,0.2,0.7,0.7,0.8c1,0.3,1.9,0.6,2.4,1c0.6,0.5,0.9,1.4,0.9,2.3c0,1.9-1.4,3.3-3.2,3.3h-3.4L102.7,164.8L102.7,164.8z"/>
		<path class="st2" d="M115.9,159.3h-2.4v8h-2.6v-8h-2.4v-2.5h7.4V159.3z"/>
		<path class="st2" d="M123.6,166.6v0.7H121v-0.7c0-1.2-0.8-2.1-2.1-2.1v2.8h-2.6v-10.6h1.7c1.3,0,1.6,0,1.9,0.1
			c2.1,0.2,3.6,1.7,3.6,3.8c0,1.2-0.5,2.1-1.4,2.7C123.1,164,123.6,165.1,123.6,166.6z M118.9,162c1.1,0,2-0.3,2-1.4s-0.9-1.4-2-1.4
			V162z"/>
		<path class="st2" d="M126.6,159.3v1.5h2.8v2.4h-2.8v1.5h4.1v2.5H124v-10.6h6.7v2.5L126.6,159.3L126.6,159.3z"/>
		<path class="st2" d="M133.7,159.3v1.5h2.8v2.4h-2.8v1.5h4.1v2.5h-6.7v-10.6h6.7v2.5L133.7,159.3L133.7,159.3z"/>
		<path class="st2" d="M145.6,159.3h-2.4v8h-2.6v-8h-2.4v-2.5h7.4L145.6,159.3L145.6,159.3z"/>
		<path class="st2" d="M151.5,159.3v1.5h2.8v2.4h-2.8v1.5h4.1v2.5h-6.7v-10.6h6.7v2.5L151.5,159.3L151.5,159.3z"/>
		<path class="st2" d="M163.4,156.7v10.6h-2.6v-1.5h-2.3v1.5h-2.6V164C155.9,159,159.1,156.7,163.4,156.7z M160.8,163.3v-3.5
			c-1.4,0.6-2.1,1.8-2.3,3.5H160.8z"/>
		<path class="st2" d="M163.9,164.8h3.1c0.6,0,0.9-0.3,0.9-0.7c0-0.4-0.4-0.7-0.7-0.8c-1.4-0.5-2-0.7-2.5-1.2
			c-0.6-0.6-0.8-1.3-0.8-2.2c0-1.5,0.8-2.8,2.3-3.1c0.3-0.1,0.5-0.1,1.6-0.1h1.4v2.5h-2c-0.5,0-0.7,0.3-0.7,0.7
			c0,0.4,0.2,0.7,0.7,0.8c1,0.3,1.9,0.6,2.5,1c0.6,0.5,0.9,1.4,0.9,2.3c0,1.9-1.5,3.3-3.2,3.3h-3.4L163.9,164.8L163.9,164.8z"/>
		<path class="st2" d="M177,159.3h-2.4v8h-2.6v-8h-2.4v-2.5h7.4L177,159.3L177,159.3z"/>
		<path class="st2" d="M80.3,177.6h-2.4v8h-2.6v-8h-2.4v-2.5h7.4L80.3,177.6L80.3,177.6z"/>
		<path class="st2" d="M79.8,180.4c0-3.1,2.4-5.5,5.5-5.5c3.1,0,5.5,2.4,5.5,5.5c0,3.1-2.4,5.5-5.5,5.5
			C82.3,185.9,79.8,183.5,79.8,180.4z M88.3,180.4c0-1.6-1.3-3-2.9-3c-1.6,0-2.9,1.4-2.9,3c0,1.6,1.3,3,2.9,3
			C86.9,183.4,88.3,182,88.3,180.4z"/>
		<path class="st2" d="M98.5,185v0.7h-2.6V185c0-1.2-0.8-2.1-2.1-2.1v2.8h-2.6v-10.6h1.7c1.3,0,1.6,0,1.9,0.1
			c2.1,0.2,3.6,1.7,3.6,3.8c0,1.2-0.5,2.1-1.4,2.7C97.9,182.4,98.5,183.5,98.5,185z M93.8,180.4c1.1,0,2-0.3,2-1.4s-0.9-1.4-2-1.4
			V180.4z"/>
		<path class="st2" d="M98.6,180.4c0-3.1,2.4-5.5,5.5-5.5c3.1,0,5.5,2.4,5.5,5.5c0,3.1-2.4,5.5-5.5,5.5
			C101,185.9,98.6,183.5,98.6,180.4z M107,180.4c0-1.6-1.3-3-2.9-3c-1.6,0-2.9,1.4-2.9,3c0,1.6,1.3,3,2.9,3
			C105.7,183.4,107,182,107,180.4z"/>
		<path class="st2" d="M117.5,175.1v10.6h-2.6v-3.3c0-2.1-0.8-3.5-2.4-4.1v7.4H110v-10.6c2.1,0,3.8,0.7,5,1.8v-1.8H117.5z"/>
		<path class="st2" d="M125.3,177.6H123v8h-2.6v-8H118v-2.5h7.4L125.3,177.6L125.3,177.6z"/>
		<path class="st2" d="M124.9,180.4c0-3.1,2.4-5.5,5.5-5.5c3.1,0,5.5,2.4,5.5,5.5c0,3.1-2.4,5.5-5.5,5.5
			C127.3,185.9,124.9,183.5,124.9,180.4z M133.3,180.4c0-1.6-1.3-3-2.9-3c-1.6,0-2.9,1.4-2.9,3c0,1.6,1.3,3,2.9,3
			C132,183.4,133.3,182,133.3,180.4z"/>
	</g>
</g>
</svg>
