<?xml version="1.0" encoding="utf-8"?>
<!-- Generator: Adobe Illustrator 23.0.2, SVG Export Plug-In . SVG Version: 6.00 Build 0)  -->
<svg version="1.1" xmlns="http://www.w3.org/2000/svg" xmlns:xlink="http://www.w3.org/1999/xlink" x="0px" y="0px"
	 viewBox="0 0 432 215.66" style="enable-background:new 0 0 432 215.66;" xml:space="preserve">
<style type="text/css">
	.st0{display:none;}
	.st1{display:inline;fill:#FFFFFF;}
	.st2{fill:#F8F4E8;}
</style>
<g id="Background" class="st0">
	<rect x="36" y="-93" class="st1" width="360" height="360"/>
</g>
<g id="Logo">
	<path class="st2" d="M302.35,143.46c2.48-1.64,3.91-4.16,3.91-7.48c0-5.67-4.16-9.71-9.88-10.34c-0.88-0.08-1.8-0.17-5.25-0.17
		h-4.63v29h7.15v-7.77c3.36,0,5.67,2.65,5.67,5.88v1.89h7.15v-1.89C306.47,148.46,305,145.4,302.35,143.46z M293.65,139.97v-7.77
		c2.95,0,5.47,1.05,5.47,3.99C299.11,139.13,296.59,139.97,293.65,139.97z M263.82,144.76c-0.33-2.18-1.45-4.11-2.99-5.2
		c1.72-1.34,2.35-3.45,2.35-5.34c0-3.82-2.57-8.03-7.78-8.62c-1.18-0.13-2.52-0.13-4.03-0.13h-8.03v29h11.18
		c5.26,0,8.63-3.12,9.29-7v7h7.15v-4.2h6.3v4.2h7.15v-29C272.64,125.47,264.12,131.44,263.82,144.76z M250.49,132.2h3.31
		c1.06,0,2.23,0.84,2.23,2.22c0,1.38-1.18,2.18-2.23,2.18h-3.31V132.2z M254.52,147.75h-4.03v-4.41h4.03c1.09,0,2.27,0.75,2.27,2.22
		C256.79,147.04,255.61,147.75,254.52,147.75z M277.25,133.84v9.5h-6.22C271.46,138.67,273.39,135.36,277.25,133.84z M223.58,132.62
		l-3.79-7.15h-7.56l7.78,14.72v14.28h7.14v-14.28l7.78-14.72h-7.56L223.58,132.62z M199.5,124.84c-6.07,0-11.23,3.46-13.65,8.51
		c-0.95,1.98-1.48,4.22-1.48,6.58c0,2.64,0.66,5.11,1.81,7.27c2.54,4.73,7.52,7.91,13.32,7.91c8.49,0,15.22-6.72,15.22-15.17
		C214.72,131.53,207.99,124.84,199.5,124.84z M199.54,148.13c-4.45,0-8.03-3.66-8.03-8.11c0-4.42,3.58-8.19,8.03-8.19
		c4.38,0,8.03,3.78,8.03,8.19C207.57,144.47,203.91,148.13,199.54,148.13z M178.65,125.98c-3.83,0.98-7.07,3.56-8.95,7.01
		c-1.13,2.07-1.77,4.46-1.77,6.99c0,2.51,0.64,4.88,1.76,6.95c1.86,3.45,5.08,6.06,8.91,7.05c1.34,0.34,2.86,0.5,5.08,0.5h0.42
		v-6.93h-0.42c-2.39,0-4.07-0.46-5.42-1.38c-1.85-1.26-3.19-3.66-3.19-6.19c0-2.52,1.34-4.91,3.19-6.18
		c1.34-0.92,3.02-1.38,5.42-1.38h0.42v-6.94h-0.42C181.38,125.47,179.96,125.64,178.65,125.98z M157.17,143.34h7.56v-6.73h-7.56
		v-4.2h11.14v-6.94h-18.28v9.43c-1.89-4.97-6.36-8.32-10.88-9.09c-1.18-0.21-3.11-0.34-5.84-0.34h-5.04v29h5.04
		c3.87,0,6.18-0.34,8.03-0.96c3.83-1.31,7.15-4.31,8.69-8.39v9.35h18.28v-6.93h-11.14V143.34z M135.42,147.54v-15.13
		c5.46,0,8.4,3.57,8.4,7.56C143.82,143.97,140.87,147.54,135.42,147.54z M306.37,110.72h-47.36c2.5-1.87,4.74-3.96,6.85-6.1
		l30.84-30.78c5.86-5.74,9.51-13.72,9.51-22.53v-3.6h-59.95c-17.37,0-34.12,7.19-46.11,19.74V44.1c0-13.9-11.31-25.21-25.21-25.21
		c-9.43,0-18.05,5.31-22.53,13.88c-5.78,11.07-14.48,15.01-20.69,15.01h-3.46v7.2h3.46h32.41c1.42,0,2.69,0.52,3.64,1.37l0.42,0.43
		c0.83,0.93,1.33,2.15,1.33,3.52c0,1.05-0.3,2.06-0.86,2.94l-6.79,11.55c-0.54-1.56-1.26-3.06-2.16-4.46l-4.84-8.23h-26.59
		l-4.8,8.15l-0.04,0.07c-2.22,3.46-3.38,7.46-3.38,11.59c0,10.64,7.76,19.49,17.92,21.21v7.48l-9.72,7.31h26.64l-9.71-7.31v-7.5
		c3.1-0.54,6.01-1.74,8.55-3.5c1.98,10.4,11.13,18.3,22.1,18.3h0.9h60.32h69.31V110.72z M128.88,75.3l3.53-5.99h18.35l3.51,5.97
		c0.06,0.1,0.11,0.22,0.16,0.33h-25.7C128.78,75.51,128.82,75.4,128.88,75.3z M155.31,86.02c-0.47,1.58-1.21,3.03-2.16,4.32
		c-0.01,0.01-0.02,0.03-0.03,0.04c-0.22,0.3-0.46,0.59-0.7,0.87c-0.1,0.12-0.21,0.23-0.31,0.34c-0.15,0.17-0.31,0.33-0.47,0.49
		c-0.16,0.16-0.33,0.32-0.5,0.48c-0.1,0.09-0.2,0.17-0.3,0.26c-0.23,0.19-0.46,0.38-0.7,0.56c-0.01,0.01-0.02,0.02-0.03,0.02
		c-1.17,0.87-2.47,1.56-3.88,2.05c-0.05,0.02-0.1,0.04-0.16,0.05c-0.28,0.09-0.57,0.18-0.86,0.25c-0.13,0.03-0.26,0.07-0.39,0.1
		c-0.25,0.06-0.49,0.11-0.74,0.15c-0.21,0.04-0.43,0.07-0.64,0.09c-0.19,0.03-0.38,0.05-0.57,0.07c-0.42,0.04-0.85,0.06-1.28,0.06
		c-7.6,0-13.81-5.95-14.28-13.43h28.55h0.01C155.81,83.9,155.61,84.98,155.31,86.02z M298.74,54.9
		c-1.04,7.03-5.11,13.08-10.83,16.79c-3.81,2.47-8.35,3.91-13.21,3.91h-2.11c1.18-0.97,2.27-2.02,3.3-3.14
		c4.32-4.76,7.21-10.84,7.98-17.56H298.74z M201.19,77.28c1.12-1.47,2.31-2.9,3.58-4.27c10.67-11.52,25.79-18.11,41.48-18.11h30.34
		c-1.22,8.16-6.51,15-13.73,18.4c-3.14,1.47-6.63,2.3-10.31,2.3h-25.43h-5.93c-2.89,0-5.71,0.32-8.41,0.93
		c-6.09,1.35-11.65,4.15-16.29,8C197.87,82.01,199.44,79.58,201.19,77.28z M149.67,47.78c1.72-1.5,3.28-3.14,4.67-4.87l4.87,4.87
		H149.67z M158.42,36.81c0.13-0.24,0.26-0.47,0.38-0.7c3.22-6.18,9.4-10.01,16.14-10.01c9.92,0,18,8.07,18,18v31.5h-23.2l5-8.51
		c1.3-2.03,1.98-4.38,1.98-6.79c0-3.22-1.23-6.14-3.23-8.35l0.03-0.03L158.42,36.81z M182.52,110.72h-5.78h-0.9
		c-8.44,0-15.3-6.87-15.3-15.31c0-2.5,0.6-4.95,1.76-7.15l3.21-5.46h23.77C184.96,91.39,182.63,100.91,182.52,110.72z
		 M189.91,110.72c1.79-15.68,15.14-27.91,31.3-27.91h53.49c1,0,1.98-0.05,2.96-0.14l-16.91,16.88
		c-6.59,6.71-13.15,11.17-23.69,11.17H189.91z"/>
	<g>
		<path class="st2" d="M143.1,178.89v-0.29h2.62v0.2c0,0.89,0.64,1.62,1.48,1.62c0.83,0,1.49-0.72,1.49-1.53
			c0-0.67-0.38-1.3-0.98-1.56c-0.24-0.11-0.41-0.14-1.58-0.14h-1.73l2.59-2.46h-3.17v-2.53h6.28v2.53h-2.04
			c1.96,0.46,3.23,2.19,3.23,4.16c0,2.25-1.84,4.09-4.1,4.09C144.93,182.97,143.1,181.14,143.1,178.89z"/>
		<path class="st2" d="M155.25,174.68h-3.77v-2.53h6.67v2.53l-3.77,8.04h-2.91L155.25,174.68z"/>
		<path class="st2" d="M158.39,179.19v-3.29c0-2.14,1.53-4.06,3.98-4.06s3.98,1.91,3.98,4.06v3.29c0,1.91-1.53,3.83-3.98,3.83
			S158.39,181.11,158.39,179.19z M163.75,178.58v-2.14c0-1.23-0.23-2.07-1.38-2.07c-1.15,0-1.38,0.84-1.38,2.07v2.14
			c0,1.15,0.23,1.91,1.38,1.91C163.52,180.49,163.75,179.73,163.75,178.58z"/>
		<path class="st2" d="M179.19,184.32l-2.68,0.03c-0.11-0.52-0.38-1.35-1.48-1.41h-0.08c-3.08,0-5.51-2.45-5.51-5.53
			c0-3.06,2.43-5.5,5.51-5.5c3.09,0,5.54,2.43,5.54,5.5c0,1.9-0.93,3.55-2.36,4.55C178.76,182.56,179.19,183.51,179.19,184.32z
			 M174.96,180.4c1.59,0,2.92-1.33,2.92-2.96c0-1.61-1.33-2.99-2.92-2.99c-1.62,0-2.92,1.38-2.92,2.99
			C172.04,179.07,173.34,180.4,174.96,180.4z"/>
		<path class="st2" d="M180.81,178.73v-6.58h2.6v6.58c0,0.99,0.31,1.61,1.19,1.61s1.19-0.61,1.19-1.61v-6.58h2.6v6.58
			c0,2.91-1.99,4.13-3.8,4.13S180.81,181.64,180.81,178.73z"/>
		<path class="st2" d="M191.47,174.68v1.53h2.76v2.45h-2.76v1.53h4.06v2.53h-6.66v-10.56h6.66v2.53H191.47z"/>
		<path class="st2" d="M198.59,174.68v1.53h2.76v2.45h-2.76v1.53h4.06v2.53h-6.66v-10.56h6.66v2.53H198.59z"/>
		<path class="st2" d="M210.69,172.15v10.56h-2.6v-3.28c0-2.11-0.75-3.54-2.37-4.07v7.35h-2.6v-10.56c2.11,0,3.78,0.67,4.98,1.82
			v-1.82H210.69z"/>
		<path class="st2" d="M214.19,180.19h3.11c0.64,0,0.93-0.31,0.93-0.67c0-0.41-0.35-0.69-0.72-0.81c-1.38-0.46-2.01-0.66-2.53-1.19
			c-0.57-0.58-0.83-1.33-0.83-2.19c0-1.5,0.81-2.76,2.34-3.08c0.26-0.06,0.55-0.09,1.61-0.09h1.42v2.53h-2.04
			c-0.54,0-0.73,0.29-0.73,0.66c0,0.38,0.21,0.67,0.69,0.81c1.04,0.31,1.88,0.55,2.45,1.04c0.63,0.54,0.93,1.38,0.93,2.28
			c0,1.94-1.45,3.25-3.23,3.25h-3.41V180.19z"/>
		<path class="st2" d="M227.35,174.68h-2.37v8.04h-2.6v-8.04H220v-2.53h7.35V174.68z"/>
		<path class="st2" d="M235.08,182.02v0.69h-2.6v-0.69c0-1.18-0.84-2.14-2.07-2.14v2.83h-2.6v-10.56h1.68
			c1.26,0,1.59,0.03,1.91,0.06c2.08,0.23,3.6,1.7,3.6,3.77c0,1.21-0.52,2.13-1.42,2.72C234.54,179.41,235.08,180.52,235.08,182.02z
			 M230.41,177.43c1.07,0,1.99-0.31,1.99-1.38c0-1.07-0.92-1.45-1.99-1.45V177.43z"/>
		<path class="st2" d="M238.07,174.68v1.53h2.76v2.45h-2.76v1.53h4.06v2.53h-6.66v-10.56h6.66v2.53H238.07z"/>
		<path class="st2" d="M245.19,174.68v1.53h2.76v2.45h-2.76v1.53h4.06v2.53h-6.66v-10.56h6.66v2.53H245.19z"/>
		<path class="st2" d="M257.05,174.68h-2.37v8.04h-2.6v-8.04h-2.37v-2.53h7.35V174.68z"/>
		<path class="st2" d="M262.95,174.68v1.53h2.76v2.45h-2.76v1.53h4.06v2.53h-6.66v-10.56h6.66v2.53H262.95z"/>
		<path class="st2" d="M274.92,172.15v10.56h-2.6v-1.53h-2.3v1.53h-2.6v-3.28C267.42,174.4,270.56,172.15,274.92,172.15z
			 M272.32,178.66v-3.46c-1.41,0.55-2.11,1.76-2.27,3.46H272.32z"/>
		<path class="st2" d="M275.37,180.19h3.11c0.64,0,0.93-0.31,0.93-0.67c0-0.41-0.35-0.69-0.72-0.81c-1.38-0.46-2.01-0.66-2.53-1.19
			c-0.57-0.58-0.83-1.33-0.83-2.19c0-1.5,0.81-2.76,2.34-3.08c0.26-0.06,0.55-0.09,1.61-0.09h1.42v2.53h-2.04
			c-0.54,0-0.74,0.29-0.74,0.66c0,0.38,0.21,0.67,0.69,0.81c1.04,0.31,1.88,0.55,2.45,1.04c0.63,0.54,0.93,1.38,0.93,2.28
			c0,1.94-1.45,3.25-3.23,3.25h-3.41V180.19z"/>
		<path class="st2" d="M288.52,174.68h-2.37v8.04h-2.6v-8.04h-2.37v-2.53h7.35V174.68z"/>
		<path class="st2" d="M191.75,193.05h-2.37v8.04h-2.6v-8.04h-2.37v-2.53h7.35V193.05z"/>
		<path class="st2" d="M191.31,195.79c0-3.06,2.43-5.5,5.51-5.5c3.09,0,5.54,2.43,5.54,5.5c0,3.08-2.45,5.53-5.54,5.53
			C193.74,201.32,191.31,198.87,191.31,195.79z M199.76,195.82c0-1.61-1.33-2.99-2.92-2.99c-1.62,0-2.92,1.38-2.92,2.99
			c0,1.62,1.3,2.96,2.92,2.96C198.43,198.78,199.76,197.45,199.76,195.82z"/>
		<path class="st2" d="M209.96,200.4v0.69h-2.6v-0.69c0-1.18-0.84-2.14-2.07-2.14v2.83h-2.6v-10.56h1.68c1.26,0,1.59,0.03,1.91,0.06
			c2.08,0.23,3.6,1.7,3.6,3.77c0,1.21-0.52,2.13-1.42,2.72C209.42,197.78,209.96,198.9,209.96,200.4z M205.29,195.81
			c1.07,0,1.99-0.31,1.99-1.38c0-1.07-0.92-1.45-1.99-1.45V195.81z"/>
		<path class="st2" d="M210.05,195.79c0-3.06,2.43-5.5,5.51-5.5c3.09,0,5.54,2.43,5.54,5.5c0,3.08-2.45,5.53-5.54,5.53
			C212.49,201.32,210.05,198.87,210.05,195.79z M218.5,195.82c0-1.61-1.33-2.99-2.92-2.99c-1.62,0-2.92,1.38-2.92,2.99
			c0,1.62,1.3,2.96,2.92,2.96C217.17,198.78,218.5,197.45,218.5,195.82z"/>
		<path class="st2" d="M229.01,190.53v10.56h-2.6v-3.28c0-2.11-0.75-3.54-2.37-4.07v7.35h-2.6v-10.56c2.11,0,3.78,0.67,4.98,1.82
			v-1.82H229.01z"/>
		<path class="st2" d="M236.82,193.05h-2.37v8.04h-2.6v-8.04h-2.37v-2.53h7.35V193.05z"/>
		<path class="st2" d="M236.38,195.79c0-3.06,2.43-5.5,5.51-5.5c3.09,0,5.54,2.43,5.54,5.5c0,3.08-2.45,5.53-5.54,5.53
			C238.81,201.32,236.38,198.87,236.38,195.79z M244.83,195.82c0-1.61-1.33-2.99-2.92-2.99c-1.62,0-2.92,1.38-2.92,2.99
			c0,1.62,1.3,2.96,2.92,2.96C243.49,198.78,244.83,197.45,244.83,195.82z"/>
	</g>
</g>
</svg>
