<?xml version="1.0" encoding="utf-8"?>
<!-- Generator: Adobe Illustrator 23.0.2, SVG Export Plug-In . SVG Version: 6.00 Build 0)  -->
<svg version="1.1" id="Layer_1" xmlns="http://www.w3.org/2000/svg" xmlns:xlink="http://www.w3.org/1999/xlink" x="0px" y="0px"
	 viewBox="0 0 432 35.7" style="enable-background:new 0 0 432 35.7;" xml:space="preserve">
<style type="text/css">
	.st0{fill:#F9F4E9;}
</style>
<g>
	<g>
		<path class="st0" d="M115.2,14.8c0-4.2,3.3-7.5,7.6-7.5c4.2,0,7.6,3.3,7.6,7.5c0,4.2-3.4,7.6-7.6,7.6
			C118.6,22.4,115.2,19,115.2,14.8z M126.8,14.8c0-2.2-1.8-4.1-4-4.1c-2.2,0-4,1.9-4,4.1c0,2.2,1.8,4.1,4,4.1
			C125,18.9,126.8,17.1,126.8,14.8z"/>
		<path class="st0" d="M130.8,7.6h2.3c1.7,0,2.2,0,2.6,0.1c2.8,0.3,4.9,2.3,4.9,5.3c0,3.2-2.5,5.2-6.3,5.2v3.9h-3.6V7.6z
			 M137.1,12.9c0-1.5-1.3-2-2.7-2v3.9C135.9,14.8,137.1,14.4,137.1,12.9z"/>
		<path class="st0" d="M144.8,11v2.1h3.8v3.4h-3.8v2.1h5.6v3.5h-9.1V7.6h9.1V11H144.8z"/>
		<path class="st0" d="M161.3,7.6v14.5h-3.6v-4.5c0-2.9-1-4.9-3.3-5.6v10.1H151V7.6c2.9,0,5.2,0.9,6.8,2.5V7.6H161.3z"/>
		<path class="st0" d="M162,7.6h3.6v14.5H162V7.6z"/>
		<path class="st0" d="M176.6,7.6v14.5H173v-4.5c0-2.9-1-4.9-3.3-5.6v10.1h-3.6V7.6c2.9,0,5.2,0.9,6.8,2.5V7.6H176.6z"/>
		<path class="st0" d="M188.1,14.7v7.3h-3.6c-4.3,0-7.5-3.2-7.5-7.2c0-3.6,2.5-6.5,5.8-7.1c0.4-0.1,1-0.1,3.1-0.1h0.3V11h-0.3
			c-2,0-2.5,0.1-3,0.3c-1.4,0.5-2.4,2-2.4,3.5c0,2,1.6,3.8,3.9,3.8v-3.9H188.1z"/>
		<path class="st0" d="M192.9,18.6h4.3c0.9,0,1.3-0.4,1.3-0.9c0-0.6-0.5-0.9-1-1.1c-1.9-0.6-2.8-0.9-3.5-1.6c-0.8-0.8-1.1-1.8-1.1-3
			c0-2.1,1.1-3.8,3.2-4.2c0.4-0.1,0.8-0.1,2.2-0.1h2V11h-2.8c-0.7,0-1,0.4-1,0.9c0,0.5,0.3,0.9,0.9,1.1c1.4,0.4,2.6,0.8,3.4,1.4
			c0.9,0.7,1.3,1.9,1.3,3.1c0,2.7-2,4.5-4.4,4.5h-4.7V18.6z"/>
		<path class="st0" d="M202.5,16.6v-9h3.6v9c0,1.4,0.4,2.2,1.6,2.2c1.2,0,1.6-0.8,1.6-2.2v-9h3.6v9c0,4-2.7,5.7-5.2,5.7
			C205.2,22.3,202.5,20.6,202.5,16.6z"/>
		<path class="st0" d="M213.6,7.6h3.6c2,0,3.8,1,4.6,2.1c0.7-1,2.6-2.1,4.6-2.1h3.6v14.5h-3.6V11.1c-1.4,0.1-2.9,1-2.9,3v7.9h-3.3
			v-7.9c0-2-1.6-3-2.9-3v10.9h-3.6V7.6z"/>
		<path class="st0" d="M230.5,7.6h3.6c2,0,3.8,1,4.6,2.1c0.7-1,2.6-2.1,4.6-2.1h3.6v14.5h-3.6V11.1c-1.4,0.1-2.9,1-2.9,3v7.9H237
			v-7.9c0-2-1.6-3-2.9-3v10.9h-3.6V7.6z"/>
		<path class="st0" d="M251,11v2.1h3.8v3.4H251v2.1h5.6v3.5h-9.1V7.6h9.1V11H251z"/>
		<path class="st0" d="M267.1,21.1v0.9h-3.6v-0.9c0-1.6-1.2-2.9-2.8-2.9v3.9h-3.6V7.6h2.3c1.7,0,2.2,0,2.6,0.1
			C265,8,267,10,267,12.8c0,1.7-0.7,2.9-2,3.7C266.4,17.5,267.1,19.1,267.1,21.1z M260.7,14.8c1.5,0,2.7-0.4,2.7-1.9s-1.3-2-2.7-2
			V14.8z"/>
		<path class="st0" d="M278.3,18.6h4v3.5h-9.8v-3.5l5.2-3.8c0.9-0.6,1.4-1.2,1.4-2.1c0-1.2-0.9-2.1-2-2.1s-2,0.9-2,2.1
			c0,0.5,0.2,1,0.6,1.5l-2.9,2.1c-0.8-0.9-1.3-2.2-1.3-3.5c0-3.1,2.5-5.6,5.6-5.6c3.1,0,5.6,2.5,5.6,5.6
			C282.9,15.7,280.6,17.1,278.3,18.6z"/>
		<path class="st0" d="M283.4,17.2v-4.5c0-2.9,2.1-5.6,5.5-5.6s5.5,2.6,5.5,5.6v4.5c0,2.6-2.1,5.2-5.5,5.2S283.4,19.9,283.4,17.2z
			 M290.7,16.4v-2.9c0-1.7-0.3-2.8-1.9-2.8s-1.9,1.2-1.9,2.8v2.9c0,1.6,0.3,2.6,1.9,2.6S290.7,18,290.7,16.4z"/>
		<path class="st0" d="M301.3,18.6h4v3.5h-9.8v-3.5l5.2-3.8c0.9-0.6,1.4-1.2,1.4-2.1c0-1.2-0.9-2.1-2-2.1s-2,0.9-2,2.1
			c0,0.5,0.2,1,0.6,1.5l-2.9,2.1c-0.8-0.9-1.3-2.2-1.3-3.5c0-3.1,2.5-5.6,5.6-5.6c3.1,0,5.6,2.5,5.6,5.6
			C305.8,15.7,303.6,17.1,301.3,18.6z"/>
		<path class="st0" d="M312.9,18.6h4v3.5h-9.8v-3.5l5.2-3.8c0.9-0.6,1.4-1.2,1.4-2.1c0-1.2-0.9-2.1-2-2.1s-2,0.9-2,2.1
			c0,0.5,0.2,1,0.6,1.5l-2.9,2.1c-0.8-0.9-1.3-2.2-1.3-3.5c0-3.1,2.5-5.6,5.6-5.6c3.1,0,5.6,2.5,5.6,5.6
			C317.4,15.7,315.2,17.1,312.9,18.6z"/>
	</g>
</g>
</svg>
