<?xml version="1.0" encoding="utf-8"?>
<!-- Generator: Adobe Illustrator 23.0.2, SVG Export Plug-In . SVG Version: 6.00 Build 0)  -->
<svg version="1.1" id="Layer_1" xmlns="http://www.w3.org/2000/svg" xmlns:xlink="http://www.w3.org/1999/xlink" x="0px" y="0px"
	 viewBox="0 0 210.5 26.8" style="enable-background:new 0 0 210.5 26.8;" xml:space="preserve">
<style type="text/css">
	.st0{fill:#F9F4E9;}
</style>
<g>
	<g>
		<path class="st0" d="M4.1,13.2c0-4.2,3.3-7.5,7.6-7.5c4.2,0,7.6,3.3,7.6,7.5c0,4.2-3.4,7.6-7.6,7.6C7.4,20.8,4.1,17.5,4.1,13.2z
			 M15.7,13.3c0-2.2-1.8-4.1-4-4.1c-2.2,0-4,1.9-4,4.1c0,2.2,1.8,4.1,4,4.1C13.8,17.3,15.7,15.5,15.7,13.3z"/>
		<path class="st0" d="M19.7,6H22c1.7,0,2.2,0,2.6,0.1c2.8,0.3,4.9,2.3,4.9,5.3c0,3.2-2.5,5.2-6.3,5.2v3.9h-3.6V6z M26,11.3
			c0-1.5-1.3-2-2.7-2v3.9C24.7,13.3,26,12.8,26,11.3z"/>
		<path class="st0" d="M33.6,9.5v2.1h3.8v3.4h-3.8V17h5.6v3.5H30V6h9.1v3.5H33.6z"/>
		<path class="st0" d="M50.2,6v14.5h-3.6V16c0-2.9-1-4.9-3.3-5.6v10.1h-3.6V6c2.9,0,5.2,0.9,6.8,2.5V6H50.2z"/>
		<path class="st0" d="M50.8,6h3.6v14.5h-3.6V6z"/>
		<path class="st0" d="M65.4,6v14.5h-3.6V16c0-2.9-1-4.9-3.3-5.6v10.1H55V6c2.9,0,5.2,0.9,6.8,2.5V6H65.4z"/>
		<path class="st0" d="M76.9,13.2v7.3h-3.6c-4.3,0-7.5-3.2-7.5-7.2c0-3.6,2.5-6.5,5.8-7.1c0.4-0.1,1-0.1,3.1-0.1h0.3v3.5h-0.3
			c-2,0-2.5,0.1-3,0.3c-1.4,0.5-2.4,2-2.4,3.5c0,2,1.6,3.8,3.9,3.8v-3.9H76.9z"/>
		<path class="st0" d="M81.7,17H86c0.9,0,1.3-0.4,1.3-0.9c0-0.6-0.5-0.9-1-1.1c-1.9-0.6-2.8-0.9-3.5-1.6c-0.8-0.8-1.1-1.8-1.1-3
			c0-2.1,1.1-3.8,3.2-4.2C85.2,6.1,85.6,6,87.1,6h2v3.5h-2.8c-0.7,0-1,0.4-1,0.9c0,0.5,0.3,0.9,0.9,1.1c1.4,0.4,2.6,0.8,3.4,1.4
			c0.9,0.7,1.3,1.9,1.3,3.1c0,2.7-2,4.5-4.4,4.5h-4.7V17z"/>
		<path class="st0" d="M91.4,15.1V6h3.6v9c0,1.4,0.4,2.2,1.6,2.2c1.2,0,1.6-0.8,1.6-2.2V6h3.6v9c0,4-2.7,5.7-5.2,5.7
			C94.1,20.7,91.4,19,91.4,15.1z"/>
		<path class="st0" d="M102.4,6h3.6c2,0,3.8,1,4.6,2.1c0.7-1,2.6-2.1,4.6-2.1h3.6v14.5h-3.6V9.6c-1.4,0.1-2.9,1-2.9,3v7.9h-3.3v-7.9
			c0-2-1.6-3-2.9-3v10.9h-3.6V6z"/>
		<path class="st0" d="M119.3,6h3.6c2,0,3.8,1,4.6,2.1c0.7-1,2.6-2.1,4.6-2.1h3.6v14.5h-3.6V9.6c-1.4,0.1-2.9,1-2.9,3v7.9h-3.3v-7.9
			c0-2-1.6-3-2.9-3v10.9h-3.6V6z"/>
		<path class="st0" d="M139.8,9.5v2.1h3.8v3.4h-3.8V17h5.6v3.5h-9.1V6h9.1v3.5H139.8z"/>
		<path class="st0" d="M156,19.6v0.9h-3.6v-0.9c0-1.6-1.2-2.9-2.8-2.9v3.9H146V6h2.3c1.7,0,2.2,0,2.6,0.1c2.9,0.3,4.9,2.3,4.9,5.2
			c0,1.7-0.7,2.9-2,3.7C155.3,16,156,17.5,156,19.6z M149.6,13.3c1.5,0,2.7-0.4,2.7-1.9s-1.3-2-2.7-2V13.3z"/>
		<path class="st0" d="M167.2,17h4v3.5h-9.8V17l5.2-3.8c0.9-0.6,1.4-1.2,1.4-2.1c0-1.2-0.9-2.1-2-2.1s-2,0.9-2,2.1
			c0,0.5,0.2,1,0.6,1.5l-2.9,2.1c-0.8-0.9-1.3-2.2-1.3-3.5c0-3.1,2.5-5.6,5.6-5.6c3.1,0,5.6,2.5,5.6,5.6
			C171.7,14.2,169.5,15.5,167.2,17z"/>
		<path class="st0" d="M172.2,15.7v-4.5c0-2.9,2.1-5.6,5.5-5.6s5.5,2.6,5.5,5.6v4.5c0,2.6-2.1,5.2-5.5,5.2S172.2,18.3,172.2,15.7z
			 M179.6,14.8v-2.9c0-1.7-0.3-2.8-1.9-2.8s-1.9,1.2-1.9,2.8v2.9c0,1.6,0.3,2.6,1.9,2.6S179.6,16.4,179.6,14.8z"/>
		<path class="st0" d="M190.1,17h4v3.5h-9.8V17l5.2-3.8c0.9-0.6,1.4-1.2,1.4-2.1c0-1.2-0.9-2.1-2-2.1s-2,0.9-2,2.1
			c0,0.5,0.2,1,0.6,1.5l-2.9,2.1c-0.8-0.9-1.3-2.2-1.3-3.5c0-3.1,2.5-5.6,5.6-5.6c3.1,0,5.6,2.5,5.6,5.6
			C194.7,14.2,192.4,15.5,190.1,17z"/>
		<path class="st0" d="M201.8,17h4v3.5H196V17l5.2-3.8c0.9-0.6,1.4-1.2,1.4-2.1c0-1.2-0.9-2.1-2-2.1s-2,0.9-2,2.1
			c0,0.5,0.2,1,0.6,1.5l-2.9,2.1c-0.8-0.9-1.3-2.2-1.3-3.5c0-3.1,2.5-5.6,5.6-5.6c3.1,0,5.6,2.5,5.6,5.6
			C206.3,14.2,204,15.5,201.8,17z"/>
	</g>
</g>
</svg>
